#!OML:ASF I:\Actors\actors\Patient Classification 1\Patient 1\Session 1\Subject1.ASF
:FULLY-SPECIFIED
:DEGREES
1408
root 0.103592 17.6048 8.19569 11.6849 0.873339 -7.39275
lowerback 5.98638 0.355817 8.04642
upperback -5.19521 1.372 1.04002
thorax -8.75859 0.205625 -3.58814
lowerneck -9.49147 -10.1694 -6.72357
upperneck 9.28888 -13.8727 9.09647
head 5.46007 -6.49693 2.75024
rclavicle -3.70236e-015 5.38706e-014
rhumerus -57.7332 -13.5813 -65.6711
rradius 145.35
rwrist -48.5241
rhand 56.0594 -24.9103
rfingers 7.12502
rthumb 73.3041 -5.47744
lclavicle -3.70236e-015 5.38706e-014
lhumerus -67.8809 0.793843 86.0069
lradius 143.542
lwrist 13.9728
lhand -37.5444 -51.7286
lfingers 7.12502
lthumb -10.5998 -22.0159
rfemur -10.5354 21.6729 21.8206
rtibia 7.90188
rfoot -12.6265 -25.0234
rtoes 0.634039
lfemur -5.96277 -32.1778 -6.52003
ltibia -0.353288
lfoot -9.76362 40.3739
ltoes -4.42676
1409
root 0.0919123 17.6075 8.23345 11.135 1.58679 -7.35511
lowerback 5.64751 0.320337 8.03491
upperback -5.20828 1.29151 1.05951
thorax -8.58315 0.174912 -3.54471
lowerneck -10.1725 -9.74264 -6.34756
upperneck 10.6653 -13.3276 8.37064
head 5.88262 -6.21292 2.47227
rclavicle -3.03147e-015 2.16675e-014
rhumerus -59.6456 -14.4104 -66.2597
rradius 144.019
rwrist -49.7421
rhand 56.5047 -25.7566
rfingers 7.12502
rthumb 73.4915 -4.96877
lclavicle -3.03147e-015 2.16675e-014
lhumerus -69.8783 0.171995 87.7256
lradius 142.494
lwrist 14.6196
lhand -38.8892 -53.5413
lfingers 7.12502
lthumb -11.8968 -23.8993
rfemur -9.50477 21.5245 22.2433
rtibia 7.68551
rfoot -12.8959 -25.5216
rtoes 0.860392
lfemur -5.2469 -32.4016 -6.87644
ltibia -0.510297
lfoot -9.28993 39.8895
ltoes -5.50494
1410
root 0.0775807 17.6128 8.27094 10.4794 2.35655 -7.23743
lowerback 5.38469 0.188304 7.83789
upperback -5.21163 1.07606 1.14265
thorax -8.45956 0.0898353 -3.31537
lowerneck -10.5485 -9.26489 -6.05942
upperneck 11.7937 -12.6886 7.668
head 6.18646 -5.9055 2.24463
rclavicle 1.26849e-014 -3.27995e-014
rhumerus -61.1111 -14.8067 -66.9278
rradius 142.29
rwrist -49.9457
rhand 56.5109 -26.4187
rfingers 7.12502
rthumb 73.4941 -5.61178
lclavicle 1.26849e-014 -3.27995e-014
lhumerus -71.7682 -0.111781 89.2676
lradius 141.167
lwrist 15.0803
lhand -39.8711 -54.8027
lfingers 7.12502
lthumb -12.8435 -25.2178
rfemur -8.28798 21.5062 22.6382
rtibia 7.37935
rfoot -13.1911 -26.225
rtoes 1.39966
lfemur -4.41332 -32.6587 -7.38494
ltibia -0.667136
lfoot -8.86068 39.351
ltoes -6.47519
1411
root 0.0673188 17.6146 8.29639 10.0191 3.02223 -7.21223
lowerback 5.53045 0.107073 7.99196
upperback -5.65469 1.01714 1.06687
thorax -9.04077 0.0151108 -3.47682
lowerneck -10.4206 -8.85118 -6.05794
upperneck 13.0535 -12.1904 7.4166
head 6.51241 -5.66202 2.20539
rclavicle 3.78933e-015 1.96797e-014
rhumerus -63.0601 -14.9081 -67.5851
rradius 140.19
rwrist -49.4677
rhand 55.6352 -25.8245
rfingers 7.12502
rthumb 73.1168 -7.65331
lclavicle 3.78933e-015 1.96797e-014
lhumerus -73.8848 -0.626981 90.2748
lradius 139.52
lwrist 15.4842
lhand -40.4912 -55.7453
lfingers 7.12502
lthumb -13.4413 -26.199
rfemur -7.48806 21.4133 22.9818
rtibia 7.24917
rfoot -13.4542 -26.7581
rtoes 1.83019
lfemur -3.93906 -32.8484 -7.62225
ltibia -0.696902
lfoot -8.82813 38.8791
ltoes -6.7011
1412
root 0.0590518 17.6134 8.31636 9.70985 3.58496 -7.21876
lowerback 5.13717 0.0160679 7.91005
upperback -5.81809 0.866003 1.17403
thorax -9.00773 -0.0514084 -3.29248
lowerneck -10.4036 -8.39153 -5.96528
upperneck 13.9086 -11.5829 7.06217
head 6.71194 -5.37648 2.13488
rclavicle 1.64541e-014 -1.19271e-014
rhumerus -64.199 -14.712 -68.1913
rradius 137.741
rwrist -49.0188
rhand 54.5906 -25.0935
rfingers 7.12502
rthumb 72.621 -9.90609
lclavicle 1.64541e-014 -1.19271e-014
lhumerus -75.1025 -0.668102 91.0791
lradius 137.377
lwrist 15.8223
lhand -40.9136 -56.1754
lfingers 7.12502
lthumb -13.8484 -26.6564
rfemur -6.96616 21.2843 23.2584
rtibia 7.23984
rfoot -13.7415 -27.1356
rtoes 2.37323
lfemur -3.64676 -32.9364 -7.72616
ltibia -0.741233
lfoot -8.76915 38.4437
ltoes -6.9804
1413
root 0.0531201 17.608 8.33229 9.53439 4.02379 -7.18148
lowerback 4.22876 -0.0626226 7.55196
upperback -5.69993 0.651025 1.42365
thorax -8.36443 -0.0974326 -2.79476
lowerneck -10.3691 -7.87715 -5.81043
upperneck 14.276 -10.8463 6.57453
head 6.73587 -5.04682 2.03373
rclavicle -1.47419e-015 -4.09496e-014
rhumerus -64.4314 -14.3879 -68.7266
rradius 135.022
rwrist -48.7374
rhand 53.5719 -25.044
rfingers 7.12502
rthumb 72.0934 -12.5972
lclavicle -1.47419e-015 -4.09496e-014
lhumerus -75.4803 -0.327013 91.7385
lradius 134.791
lwrist 16.2042
lhand -41.1741 -55.6158
lfingers 7.12502
lthumb -14.0994 -26.1142
rfemur -6.68904 21.0525 23.3792
rtibia 7.32002
rfoot -13.9417 -27.3025
rtoes 2.77289
lfemur -3.48076 -33.0976 -7.83906
ltibia -0.783248
lfoot -8.60682 38.2184
ltoes -7.52596
1414
root 0.0531948 17.599 8.33868 9.47328 4.34405 -7.13492
lowerback 4.23254 0.0442525 7.77076
upperback -6.27057 0.833688 1.23659
thorax -8.97529 -0.0644134 -3.13422
lowerneck -9.82146 -7.49422 -5.43379
upperneck 15.0662 -10.3951 6.18437
head 6.82258 -4.8416 1.91063
rclavicle 1.33838e-014 -1.43125e-014
rhumerus -65.8113 -14.4398 -68.9015
rradius 132.306
rwrist -48.7252
rhand 54.5947 -27.0467
rfingers 7.12502
rthumb 72.6231 -11.8479
lclavicle 1.33838e-014 -1.43125e-014
lhumerus -76.6601 -0.889825 91.8818
lradius 132.022
lwrist 16.8208
lhand -41.0924 -54.3256
lfingers 7.12502
lthumb -14.0207 -24.8185
rfemur -6.65469 20.6828 23.3581
rtibia 7.43465
rfoot -14.0145 -27.2316
rtoes 2.70291
lfemur -3.46734 -33.4838 -7.9312
ltibia -0.768998
lfoot -8.63495 38.305
ltoes -7.55622
1415
root 0.0520804 17.5922 8.34521 9.36261 4.6548 -7.06086
lowerback 4.02736 0.125732 7.80197
upperback -6.56321 0.934754 1.12537
thorax -9.16503 -0.0355097 -3.27942
lowerneck -9.99672 -7.22785 -5.04167
upperneck 16.0631 -10.0787 5.77196
head 7.11204 -4.68105 1.73323
rclavicle 5.80824e-015 1.41137e-014
rhumerus -66.5064 -14.4579 -69.1413
rradius 129.3
rwrist -48.5486
rhand 54.2875 -27.3882
rfingers 7.12502
rthumb 72.4684 -13.0336
lclavicle 5.80824e-015 1.41137e-014
lhumerus -77.0526 -1.39705 91.7825
lradius 128.923
lwrist 17.4497
lhand -40.77 -52.8044
lfingers 7.12502
lthumb -13.71 -23.276
rfemur -6.46567 20.5477 23.3489
rtibia 7.41057
rfoot -14.1832 -27.3496
rtoes 2.89561
lfemur -3.31108 -33.9013 -8.09523
ltibia -0.880679
lfoot -8.6161 38.3991
ltoes -7.46763
1416
root 0.0460405 17.5877 8.35746 9.20383 5.00985 -7.04906
lowerback 3.64587 0.14621 7.72408
upperback -6.61555 0.922247 1.13161
thorax -8.99715 -0.0305435 -3.22378
lowerneck -11.0266 -7.11613 -5.13337
upperneck 17.404 -9.96798 5.83327
head 7.73351 -4.58244 1.72801
rclavicle 1.85242e-014 -2.16675e-014
rhumerus -66.5238 -14.4196 -69.5369
rradius 125.966
rwrist -47.8254
rhand 53.1556 -26.1288
rfingers 7.12502
rthumb 71.8662 -14.7539
lclavicle 1.85242e-014 -2.16675e-014
lhumerus -76.73 -1.71545 91.5057
lradius 125.481
lwrist 18.0649
lhand -40.5692 -51.1337
lfingers 7.12502
lthumb -13.5164 -21.5923
rfemur -6.09239 20.6548 23.4959
rtibia 7.25409
rfoot -14.4344 -27.7472
rtoes 3.53594
lfemur -3.01856 -34.2197 -8.18619
ltibia -1.13907
lfoot -8.44123 38.3842
ltoes -7.63472
1417
root 0.039547 17.5813 8.36845 9.10741 5.40172 -7.08464
lowerback 3.22286 0.164798 7.64353
upperback -6.83933 0.915706 1.16194
thorax -8.99475 -0.0315608 -3.14092
lowerneck -11.2898 -6.92674 -5.45061
upperneck 18.4796 -9.80717 6.30692
head 8.16948 -4.45885 1.93372
rclavicle -4.5969e-016 -2.38542e-015
rhumerus -66.7435 -14.3277 -69.755
rradius 122.54
rwrist -46.7943
rhand 52.1458 -24.7908
rfingers 7.12502
rthumb 71.2887 -15.9037
lclavicle -4.5969e-016 -2.38542e-015
lhumerus -76.5691 -1.99058 91.1445
lradius 121.82
lwrist 18.6616
lhand -40.7482 -49.9682
lfingers 7.12502
lthumb -13.6889 -20.4384
rfemur -5.79045 20.7342 23.678
rtibia 7.07415
rfoot -14.6492 -28.1606
rtoes 4.15745
lfemur -2.85118 -34.5204 -8.13485
ltibia -1.37558
lfoot -8.27831 38.3498
ltoes -7.71871
